# xmcd
#
# Track frame offsets: 
#        150
#        6327
#        17729
#        27495
#        40362
#        52308
#        66864
#        83646
#        97252
#        111456
#        126375
#        142759
#        161183
#        172731
#        191219
#        205779
#        222593
#        240524
#        248484
#        258219
#        266048
#        277405
#
# Disc length: 3840 seconds
#
# Revision: 0
# Processed by: cddbd v1.5.2PL0 Copyright (c) Steve Scherf et al.
# Submitted via: ExactAudioCopyFreeDBPlugin 1.0
#
DISCID=520efe16
DTITLE=SeboKILL - BETTELRAP
DYEAR=2012
DGENRE=Rap
TTITLE0=Hallo liebe Kinder (Intro)
TTITLE1=Geh und zünd wen an
TTITLE2=I spü do vü lieba
TTITLE3=Schlangen (Feat. Mic Myerz)
TTITLE4=Materiallos (Feat. SterilOne)
TTITLE5=Nahrungsersatz (Feat. Fill MC)
TTITLE6=Plan S
TTITLE7=4 Wände (Feat. DeeSandra)
TTITLE8=Mei bester Hawara
TTITLE9=Die Sun steht tiaf (Feat. Vearz and DeeSandra)
TTITLE10=Seelenflug
TTITLE11=Wos wollts es!?
TTITLE12=Gossip
TTITLE13=Ka Vurteil (Feat. Alkoida)
TTITLE14=A nua ana
TTITLE15=Geeks mit Scheitel (Feat. derNudist)
TTITLE16=Tamtatamtatamtatam (Feat. DeeSandra)
TTITLE17=Nix zum tuan
TTITLE18=200 Kilo nackt
TTITLE19=Schon lang nicht mehr benutzt
TTITLE20=Eini Eini (Feat. Jamin)
TTITLE21=Das erinnert mich an einen Witz (Skit)
EXTD=
EXTT0=
EXTT1=
EXTT2=
EXTT3=
EXTT4=
EXTT5=
EXTT6=
EXTT7=
EXTT8=
EXTT9=
EXTT10=
EXTT11=
EXTT12=
EXTT13=
EXTT14=
EXTT15=
EXTT16=
EXTT17=
EXTT18=
EXTT19=
EXTT20=
EXTT21=
PLAYORDER=
